PathFileType	4	(X/Y/Z)	OpenSim_Sub07_CSStiffKnee_Magnet.trc
DataRate	CameraRate	NumFrames	NumMarkers	Units	OrigDataRate	OrigDataStartFrame	OrigNumFrames
100	100	20	8	m	100	842	6734
Frame#	Time	torso_imu_offset_imu	pelvis_imu_offset_imu	tibia_r_imu_offset_imu	femur_r_imu_offset_imu	tibia_l_imu_offset_imu	femur_l_imu_offset_imu	toes_r_imu_offset_imu	toes_l_imu_offset_imu
				X1	Y1	Z1	X2	Y2	Z2	X3	Y3	Z3	X4	Y4	Z4	X5	Y5	Z5	X6	Y6	Z6	X7	Y7	Z7	X8		Y8	Z8	

842	8.41000000	0.93995451	0.14419911	0.08024015	-0.67085161	0.05784574	-0.69044893	-0.54034443	-0.64345318	0.07325811	-0.70038362	-0.45176373	-0.19070062	-0.73187922	0.37770717	0.09796991	-0.64879496	-0.18704685	0.23582839	-0.71984015	-0.39553183	-0.39914734	-0.66341925	-0.25984131	-0.43350023
843	8.42000000	0.93824711	0.14366876	0.08086968	-0.66820053	0.05624972	-0.69210201	-0.53878167	-0.65255125	0.07369092	-0.70697680	-0.45348012	-0.19831447	-0.73701567	0.36347496	0.10666455	-0.64732987	-0.19062356	0.23661172	-0.72811240	-0.39703513	-0.40063901	-0.66088682	-0.25099324	-0.43436987
844	8.43000000	0.94131325	0.14759528	0.07326815	-0.66676300	0.05691590	-0.69163163	-0.51729256	-0.65963589	0.07483445	-0.70205309	-0.45682633	-0.20455699	-0.74348052	0.34661842	0.10608872	-0.64791977	-0.19266782	0.23798581	-0.73368368	-0.39631958	-0.39179585	-0.66455182	-0.25397163	-0.42760914
845	8.44000000	0.94153519	0.14636432	0.06918936	-0.67399399	0.06126719	-0.68622323	-0.51297152	-0.66419989	0.08073583	-0.70057808	-0.45018883	-0.20828087	-0.74693285	0.33711993	0.11496366	-0.64254245	-0.18742592	0.24164086	-0.73485879	-0.40018584	-0.38892329	-0.66744971	-0.25758237	-0.42004754
846	8.45000000	0.94160635	0.14896340	0.07403844	-0.67800302	0.06055161	-0.68477365	-0.50455905	-0.67411100	0.08684691	-0.70070084	-0.45320377	-0.21113216	-0.74385310	0.33240505	0.11990504	-0.64834685	-0.18264318	0.24126857	-0.74018521	-0.39946822	-0.38292935	-0.66776714	-0.25652838	-0.41885140
847	8.46000000	0.94677018	0.15350731	0.06936429	-0.68147471	0.07097227	-0.67936390	-0.48805187	-0.68281178	0.08791595	-0.69876268	-0.45410871	-0.21548287	-0.75398264	0.33362822	0.12326057	-0.64694698	-0.18172543	0.24526565	-0.73937803	-0.40039902	-0.38526623	-0.67502369	-0.25402318	-0.41064929
848	8.47000000	0.94270238	0.15153451	0.06948996	-0.68204767	0.07173503	-0.67856832	-0.47824293	-0.69126461	0.09003272	-0.70568099	-0.44947273	-0.21672649	-0.74917450	0.33589757	0.12976812	-0.65069927	-0.18696693	0.24222730	-0.74419426	-0.39753679	-0.38666093	-0.68632191	-0.24846899	-0.38999447
849	8.48000000	0.93980636	0.15344278	0.06783501	-0.68753570	0.07066405	-0.67077779	-0.46771080	-0.70473867	0.09287354	-0.70497506	-0.45089220	-0.21768081	-0.74499618	0.34291368	0.13327084	-0.64640195	-0.18898451	0.23662600	-0.75141933	-0.39090259	-0.37090206	-0.69521046	-0.24397667	-0.36799413
850	8.49000000	0.93916634	0.15400383	0.06553197	-0.68941793	0.07978240	-0.66907086	-0.45413250	-0.70983695	0.08846393	-0.70187103	-0.44589111	-0.22328021	-0.73665353	0.35679142	0.13268990	-0.64385016	-0.19578216	0.24659973	-0.75291270	-0.38831103	-0.37166223	-0.70322228	-0.24295070	-0.35858185
851	8.50000000	0.93864408	0.15505352	0.05714228	-0.68928199	0.07790571	-0.66580837	-0.43228107	-0.72126132	0.09055144	-0.70659126	-0.44166723	-0.22655348	-0.72761220	0.37040952	0.13221871	-0.64570118	-0.19700625	0.24852604	-0.75897253	-0.38285966	-0.35736842	-0.70287619	-0.22677648	-0.37926495
852	8.51000000	0.94277474	0.15354456	0.05729270	-0.69091018	0.08785272	-0.65947344	-0.41356296	-0.73694036	0.09239132	-0.71046353	-0.43871963	-0.22680529	-0.71880025	0.38575253	0.14186039	-0.64181972	-0.20201350	0.25815878	-0.76750089	-0.37648990	-0.35659634	-0.70080195	-0.22145928	-0.38660615
853	8.52000000	0.94152414	0.15615242	0.05404258	-0.68745304	0.08994256	-0.66092736	-0.39440775	-0.74188407	0.08836838	-0.70958104	-0.43419897	-0.22925450	-0.71037803	0.39752520	0.14817352	-0.63835084	-0.20439272	0.25753285	-0.77303501	-0.36639276	-0.34280861	-0.70470649	-0.23208373	-0.36886247
854	8.53000000	0.93930514	0.15896073	0.04732640	-0.69635281	0.09541355	-0.65309595	-0.37539356	-0.75069508	0.08337788	-0.71856089	-0.42055048	-0.22398620	-0.71356115	0.40564574	0.14863935	-0.63391885	-0.21468177	0.25929564	-0.78236371	-0.36040526	-0.32861282	-0.70467660	-0.21676353	-0.38603647
855	8.54000000	0.94125758	0.16232250	0.04998411	-0.69352209	0.09464062	-0.65077388	-0.35527682	-0.76748564	0.08530208	-0.72887372	-0.40906961	-0.21433236	-0.70307424	0.41569138	0.14922148	-0.63044713	-0.21791451	0.25698377	-0.80035369	-0.34637903	-0.30347740	-0.70389381	-0.22087993	-0.38275269
856	8.55000000	0.94311140	0.16151582	0.04603707	-0.69553091	0.09868989	-0.64902478	-0.33462961	-0.77247850	0.08726239	-0.73754512	-0.39463270	-0.20989074	-0.69513702	0.42459523	0.15313098	-0.63356642	-0.21749584	0.26235960	-0.81315269	-0.34191365	-0.27243088	-0.70212751	-0.22553480	-0.37887965
857	8.56000000	0.94009425	0.16291630	0.04239019	-0.70563957	0.10344021	-0.64241272	-0.31118023	-0.78134372	0.08733428	-0.74646032	-0.37637412	-0.20623662	-0.68985090	0.43027017	0.15866999	-0.62862763	-0.21182086	0.26900686	-0.82489711	-0.33839264	-0.23223953	-0.70177425	-0.21996071	-0.37541930
858	8.57000000	0.94016226	0.16685183	0.03903082	-0.70599491	0.10364634	-0.64175489	-0.28551741	-0.78999962	0.08823392	-0.75579414	-0.35857997	-0.21305650	-0.68759690	0.43635449	0.17129892	-0.62707889	-0.20838792	0.26518674	-0.83874223	-0.32768430	-0.18913351	-0.69994150	-0.22222191	-0.38285011
859	8.58000000	0.93510930	0.16910950	0.03717107	-0.71078372	0.10908472	-0.63597251	-0.26228038	-0.80096213	0.09127843	-0.76752347	-0.33487900	-0.21189676	-0.68334549	0.43932723	0.17808750	-0.62571464	-0.19929952	0.26880377	-0.84597264	-0.32255982	-0.14703706	-0.70377086	-0.22354908	-0.38747587
860	8.59000000	0.93752152	0.17418741	0.03984621	-0.71341250	0.11468501	-0.62731990	-0.22920320	-0.81057163	0.09341322	-0.77718047	-0.31820673	-0.20532515	-0.67746591	0.45202659	0.17568969	-0.62558386	-0.19332131	0.27006465	-0.85194471	-0.32326717	-0.09993493	-0.70636317	-0.22088266	-0.38934805
861	8.60000000	0.93715444	0.18043985	0.03527836	-0.70962454	0.11866346	-0.63143522	-0.20280133	-0.81474934	0.09265303	-0.78354487	-0.30145491	-0.20055649	-0.67061345	0.45423867	0.17591743	-0.62301761	-0.19078659	0.26616189	-0.85490457	-0.32437479	-0.04852747	-0.70497005	-0.21052078	-0.39003940
